<?xml version="1.0" encoding="utf-8"?>
<!-- Generator: Adobe Illustrator 26.0.0, SVG Export Plug-In . SVG Version: 6.00 Build 0)  -->
<svg version="1.1" xmlns="http://www.w3.org/2000/svg" xmlns:xlink="http://www.w3.org/1999/xlink" x="0px" y="0px"
	 viewBox="0 0 612 594.78" style="enable-background:new 0 0 612 594.78;" xml:space="preserve">
<style type="text/css">
	.st0{display:none;fill:#F5F5F7;}
	.st1{fill:#FFFFFF;}
	.st2{fill:#FFFFFF;stroke:#FFFFFF;}
	.st3{fill:none;stroke:#FFFFFF;stroke-width:4;stroke-miterlimit:10;}
</style>
<g id="Capa_4">
</g>
<g id="Capa_3">
	<rect x="0.35" y="-0.83" class="st0" width="612" height="593.22"/>
	<g>
		<path class="st1" d="M169.14,98.4c2.12,2.45,3.39,5.2,3.81,8.25c0.42,3.04-0.1,6.17-1.58,9.38c-1.48,3.21-3.89,6.25-7.22,9.13
			c-4,3.45-7.95,5.55-11.86,6.28c-2.78,0.5-5.53,0.35-8.25-0.48c-2.72-0.82-4.82-2.09-6.3-3.8c-0.86-1-1.25-2.15-1.17-3.45
			c0.08-1.31,0.65-2.42,1.72-3.35c0.87-0.75,1.84-1.1,2.92-1.07c1.08,0.04,2.3,0.42,3.66,1.14c1.63,0.85,3.12,1.44,4.47,1.79
			c1.35,0.35,2.81,0.34,4.38-0.04c1.57-0.38,3.24-1.33,5.01-2.86c2.43-2.1,3.92-4.38,4.46-6.82c0.54-2.45,0.08-4.52-1.38-6.21
			c-1.16-1.35-2.52-2.08-4.06-2.21c-1.54-0.13-3.16,0.14-4.84,0.82c-1.68,0.68-3.83,1.71-6.43,3.09c-3.5,1.83-6.63,3.14-9.38,3.92
			s-5.38,0.88-7.9,0.3c-2.51-0.58-4.78-2.04-6.8-4.38c-1.93-2.23-3.03-4.74-3.31-7.52c-0.28-2.78,0.33-5.64,1.83-8.56
			c1.5-2.92,3.81-5.73,6.92-8.42c2.49-2.15,4.91-3.7,7.26-4.65c2.35-0.95,4.56-1.43,6.65-1.44c2.08-0.01,3.89,0.31,5.41,0.95
			c1.52,0.65,2.75,1.51,3.67,2.57c0.84,0.98,1.26,2.16,1.24,3.54c-0.01,1.38-0.54,2.52-1.57,3.41c-0.94,0.81-1.86,1.19-2.75,1.15
			s-2.09-0.36-3.58-0.94c-2.06-0.89-3.97-1.32-5.75-1.29c-1.77,0.03-3.8,1.04-6.09,3.01c-2.12,1.83-3.43,3.77-3.92,5.83
			c-0.5,2.05-0.18,3.73,0.95,5.04c0.7,0.81,1.53,1.32,2.48,1.53c0.95,0.21,2,0.19,3.14-0.06c1.14-0.24,2.21-0.59,3.21-1.03
			c1-0.44,2.61-1.22,4.83-2.34c2.75-1.44,5.33-2.64,7.74-3.59c2.41-0.95,4.66-1.53,6.76-1.73c2.1-0.2,4.12,0.09,6.06,0.87
			C165.52,94.94,167.37,96.36,169.14,98.4z"/>
		<path class="st1" d="M174.67,87.22L162.72,64.4c-1.02-1.94-1.34-3.63-0.98-5.06c0.37-1.43,1.26-2.52,2.68-3.26
			c1.49-0.78,2.92-0.91,4.31-0.4s2.58,1.74,3.6,3.68l12.22,23.34c1.39,2.65,2.85,4.72,4.37,6.19s3.3,2.3,5.33,2.49
			c2.02,0.19,4.4-0.43,7.12-1.85c3.75-1.97,5.89-4.35,6.39-7.16c0.51-2.81-0.3-6.24-2.42-10.3l-12.32-23.53
			c-1.03-1.96-1.36-3.65-1-5.06c0.36-1.41,1.26-2.5,2.71-3.25c1.45-0.76,2.87-0.89,4.27-0.4c1.4,0.49,2.61,1.72,3.64,3.68
			l11.95,22.82c1.94,3.71,3.2,7,3.78,9.86c0.58,2.86,0.35,5.75-0.67,8.68c-0.89,2.5-2.29,4.72-4.19,6.65
			c-1.9,1.93-4.39,3.7-7.45,5.3c-3.65,1.91-6.99,3.16-10.04,3.75c-3.05,0.59-5.83,0.5-8.36-0.28c-2.53-0.78-4.85-2.26-6.98-4.43
			C178.55,93.67,176.55,90.8,174.67,87.22z"/>
		<path class="st1" d="M268.73,57.43c0.8,3.14,0.72,6.17-0.26,9.08c-0.98,2.92-2.84,5.48-5.59,7.69c-2.75,2.21-6.26,3.87-10.53,4.96
			c-5.12,1.31-9.59,1.43-13.41,0.34c-2.72-0.79-5.11-2.15-7.18-4.1c-2.07-1.95-3.39-4.02-3.95-6.21c-0.33-1.27-0.16-2.48,0.49-3.61
			c0.65-1.13,1.66-1.88,3.03-2.23c1.11-0.28,2.14-0.17,3.09,0.34c0.95,0.51,1.87,1.39,2.77,2.65c1.08,1.48,2.15,2.68,3.2,3.59
			s2.36,1.55,3.94,1.91c1.58,0.36,3.5,0.25,5.76-0.33c3.11-0.8,5.46-2.17,7.03-4.12c1.57-1.95,2.08-4.01,1.53-6.18
			c-0.44-1.72-1.33-2.99-2.65-3.79c-1.33-0.8-2.89-1.28-4.7-1.42s-4.19-0.17-7.13-0.1c-3.95,0.08-7.33-0.14-10.15-0.66
			c-2.81-0.52-5.21-1.61-7.21-3.25c-1.99-1.64-3.37-3.96-4.14-6.95c-0.73-2.85-0.6-5.59,0.39-8.21c0.99-2.62,2.81-4.9,5.45-6.85
			c2.64-1.95,5.96-3.43,9.95-4.45c3.19-0.82,6.04-1.13,8.57-0.93c2.53,0.2,4.72,0.75,6.59,1.67c1.87,0.92,3.34,2,4.42,3.26
			c1.08,1.26,1.79,2.57,2.14,3.94c0.32,1.25,0.17,2.49-0.46,3.72c-0.63,1.23-1.6,2.01-2.92,2.35c-1.2,0.31-2.2,0.24-2.97-0.2
			c-0.78-0.44-1.71-1.25-2.79-2.43c-1.45-1.72-2.97-2.95-4.57-3.71c-1.6-0.76-3.87-0.76-6.79-0.01c-2.71,0.7-4.75,1.85-6.11,3.47
			c-1.36,1.62-1.82,3.26-1.39,4.94c0.27,1.04,0.78,1.86,1.54,2.47c0.76,0.61,1.7,1.06,2.83,1.35c1.13,0.29,2.24,0.46,3.33,0.5
			c1.09,0.05,2.88,0.07,5.37,0.06c3.1-0.06,5.94,0.01,8.53,0.23c2.58,0.22,4.86,0.7,6.82,1.46c1.97,0.75,3.65,1.91,5.04,3.48
			C267.03,52.72,268.06,54.81,268.73,57.43z"/>
		<path class="st1" d="M278.72,49.9l-0.54-25.75c-0.05-2.19,0.41-3.85,1.38-4.96s2.25-1.69,3.86-1.72c1.68-0.03,3.03,0.49,4.03,1.56
			c1.01,1.08,1.54,2.71,1.58,4.9l0.55,26.34c0.06,3,0.45,5.49,1.16,7.49c0.71,2,1.93,3.53,3.66,4.6c1.73,1.07,4.13,1.58,7.19,1.51
			c4.24-0.09,7.21-1.28,8.92-3.57c1.71-2.29,2.51-5.72,2.42-10.3l-0.55-26.56c-0.05-2.22,0.41-3.88,1.36-4.98
			c0.95-1.1,2.24-1.67,3.88-1.71c1.63-0.03,2.96,0.48,4,1.54c1.03,1.06,1.57,2.7,1.62,4.92l0.54,25.75
			c0.09,4.19-0.25,7.69-1.01,10.51c-0.76,2.82-2.25,5.31-4.47,7.48c-1.91,1.84-4.15,3.21-6.71,4.09c-2.56,0.88-5.58,1.36-9.03,1.43
			c-4.12,0.09-7.67-0.29-10.66-1.11c-2.99-0.83-5.44-2.15-7.35-3.98c-1.91-1.82-3.34-4.18-4.28-7.07
			C279.31,57.41,278.8,53.94,278.72,49.9z"/>
		<path class="st1" d="M352.06,52.85l-3.71-0.81l-3.69,16.81c-0.49,2.21-1.33,3.74-2.54,4.57s-2.59,1.08-4.16,0.73
			c-1.69-0.37-2.88-1.21-3.56-2.5c-0.69-1.3-0.8-3.01-0.33-5.12l8.84-40.25c0.5-2.28,1.38-3.83,2.62-4.62
			c1.25-0.8,3.01-0.95,5.3-0.45l17.24,3.78c2.38,0.52,4.39,1.07,6.04,1.64c1.64,0.57,3.08,1.32,4.3,2.23
			c1.49,1.05,2.72,2.36,3.7,3.92c0.98,1.56,1.61,3.27,1.89,5.11c0.28,1.85,0.21,3.72-0.21,5.62c-0.86,3.9-2.64,6.78-5.35,8.63
			c-2.71,1.85-6.41,2.77-11.1,2.76c1.66,1.41,3.13,3.28,4.42,5.61c1.29,2.33,2.36,4.74,3.22,7.23c0.86,2.5,1.47,4.71,1.83,6.65
			s0.47,3.24,0.32,3.9c-0.15,0.69-0.52,1.33-1.11,1.91s-1.31,0.98-2.15,1.21c-0.85,0.23-1.77,0.23-2.77,0.01
			c-1.19-0.26-2.13-0.76-2.81-1.5s-1.23-1.6-1.62-2.58c-0.4-0.98-0.91-2.42-1.54-4.3l-2.7-8c-0.95-2.93-1.88-5.2-2.79-6.82
			c-0.9-1.62-1.92-2.82-3.05-3.59C355.44,53.85,353.94,53.26,352.06,52.85z M362.95,32.2l-9.78-2.15l-3.16,14.38l9.49,2.08
			c2.55,0.56,4.74,0.81,6.57,0.75s3.32-0.52,4.47-1.38c1.15-0.86,1.93-2.21,2.33-4.07c0.32-1.45,0.23-2.81-0.26-4.08
			c-0.5-1.27-1.34-2.32-2.52-3.15C368.97,33.79,366.59,33,362.95,32.2z"/>
		<path class="st1" d="M405.5,69.73l-3.42-1.65l-7.48,15.5c-0.99,2.04-2.16,3.33-3.53,3.86c-1.37,0.53-2.77,0.45-4.22-0.25
			c-1.56-0.75-2.52-1.84-2.89-3.26c-0.37-1.42-0.08-3.11,0.86-5.06l17.92-37.11c1.02-2.11,2.22-3.4,3.62-3.89s3.15-0.22,5.26,0.79
			l15.89,7.67c2.19,1.06,4.02,2.06,5.49,3c1.47,0.94,2.69,1.99,3.66,3.17c1.21,1.37,2.1,2.92,2.7,4.67
			c0.59,1.75,0.81,3.55,0.66,5.41c-0.15,1.86-0.65,3.67-1.5,5.42c-1.74,3.6-4.14,5.98-7.21,7.15c-3.07,1.17-6.88,1.21-11.44,0.12
			c1.29,1.76,2.29,3.92,3,6.48s1.2,5.16,1.46,7.78s0.34,4.93,0.24,6.89c-0.1,1.97-0.29,3.26-0.59,3.87
			c-0.31,0.64-0.81,1.17-1.52,1.6c-0.71,0.43-1.5,0.66-2.38,0.68s-1.78-0.19-2.7-0.63c-1.1-0.53-1.89-1.23-2.39-2.11
			c-0.5-0.88-0.82-1.84-0.98-2.89c-0.16-1.05-0.33-2.56-0.5-4.54l-0.77-8.4c-0.25-3.07-0.63-5.5-1.13-7.28
			c-0.5-1.79-1.22-3.18-2.13-4.19S407.24,70.57,405.5,69.73z M420.88,52.17l-9.02-4.35l-6.4,13.26l8.75,4.23
			c2.35,1.13,4.42,1.88,6.22,2.25c1.8,0.37,3.35,0.27,4.67-0.3s2.39-1.71,3.21-3.42c0.65-1.34,0.88-2.68,0.69-4.03
			s-0.76-2.57-1.73-3.65C426.37,55.11,424.24,53.79,420.88,52.17z"/>
		<path class="st1" d="M480.79,79.95c4.27,3.55,7.22,7.46,8.84,11.74c1.62,4.28,1.89,8.67,0.81,13.17
			c-1.08,4.5-3.41,8.91-6.99,13.22c-2.65,3.19-5.48,5.72-8.51,7.61c-3.03,1.89-6.19,3.07-9.51,3.55c-3.31,0.48-6.64,0.18-9.99-0.89
			c-3.35-1.07-6.65-2.96-9.89-5.65c-3.22-2.68-5.67-5.59-7.36-8.75c-1.68-3.16-2.59-6.39-2.73-9.7c-0.13-3.31,0.47-6.66,1.81-10.04
			c1.34-3.38,3.29-6.62,5.86-9.71c2.63-3.17,5.5-5.69,8.6-7.58c3.1-1.89,6.29-3.04,9.55-3.46c3.26-0.42,6.54-0.1,9.83,0.97
			S477.65,77.33,480.79,79.95z M475.05,110.99c2.51-3.02,4.19-6.03,5.05-9.05c0.86-3.02,0.86-5.85,0-8.48s-2.47-4.93-4.81-6.87
			c-1.67-1.39-3.47-2.35-5.41-2.9c-1.94-0.55-3.91-0.65-5.93-0.3c-2.02,0.35-4.1,1.21-6.23,2.59c-2.14,1.37-4.17,3.22-6.1,5.54
			c-1.95,2.34-3.41,4.7-4.39,7.09c-0.98,2.38-1.45,4.64-1.41,6.79c0.04,2.14,0.5,4.1,1.39,5.88c0.88,1.78,2.16,3.36,3.82,4.75
			c2.14,1.77,4.54,2.87,7.22,3.29c2.68,0.42,5.47-0.05,8.38-1.4C469.53,116.56,472.34,114.25,475.05,110.99z"/>
		<path class="st1" d="M507.41,166.88c-2.59,1.94-5.42,3.02-8.49,3.24c-3.07,0.21-6.15-0.53-9.25-2.22c-3.1-1.7-5.97-4.31-8.61-7.83
			c-3.17-4.23-4.99-8.32-5.45-12.26c-0.31-2.81,0.04-5.55,1.04-8.2c1.01-2.66,2.42-4.67,4.23-6.02c1.05-0.79,2.23-1.1,3.53-0.93
			s2.37,0.82,3.22,1.95c0.69,0.92,0.98,1.91,0.87,2.98c-0.11,1.07-0.57,2.26-1.38,3.57c-0.96,1.57-1.65,3.01-2.09,4.33
			c-0.44,1.32-0.53,2.78-0.26,4.37c0.27,1.6,1.1,3.33,2.51,5.2c1.93,2.57,4.09,4.21,6.5,4.92c2.4,0.71,4.5,0.39,6.29-0.95
			c1.42-1.07,2.25-2.37,2.49-3.9c0.24-1.53,0.07-3.16-0.49-4.89s-1.44-3.93-2.64-6.63c-1.59-3.62-2.68-6.83-3.27-9.63
			c-0.59-2.8-0.51-5.43,0.24-7.9c0.75-2.47,2.37-4.63,4.84-6.48c2.36-1.77,4.93-2.7,7.73-2.78c2.8-0.09,5.6,0.72,8.41,2.42
			s5.45,4.19,7.92,7.49c1.97,2.63,3.35,5.15,4.14,7.56s1.11,4.65,0.98,6.73c-0.13,2.08-0.57,3.85-1.32,5.33
			c-0.75,1.48-1.69,2.64-2.82,3.49c-1.03,0.77-2.24,1.11-3.61,1s-2.47-0.71-3.29-1.8c-0.75-0.99-1.06-1.94-0.95-2.82
			c0.11-0.89,0.5-2.06,1.18-3.51c1.03-1.99,1.59-3.87,1.68-5.65s-0.77-3.86-2.59-6.28c-1.68-2.24-3.53-3.68-5.54-4.32
			c-2.01-0.64-3.71-0.44-5.1,0.6c-0.86,0.64-1.42,1.43-1.7,2.37c-0.27,0.94-0.33,1.98-0.16,3.13c0.17,1.15,0.43,2.25,0.81,3.27
			c0.37,1.03,1.04,2.69,2,4.98c1.25,2.84,2.26,5.5,3.05,7.97s1.21,4.76,1.26,6.86s-0.37,4.1-1.29,5.99
			C511.11,163.51,509.57,165.26,507.41,166.88z"/>
		<path class="st1" d="M526.96,190.61l24.35-8.39c2.07-0.71,3.79-0.78,5.15-0.21c1.36,0.58,2.3,1.62,2.82,3.14
			c0.55,1.59,0.46,3.03-0.25,4.32s-2.11,2.29-4.18,3.01l-24.91,8.58c-2.83,0.98-5.09,2.11-6.77,3.4c-1.68,1.29-2.77,2.92-3.26,4.89
			c-0.49,1.97-0.24,4.41,0.76,7.31c1.38,4.01,3.42,6.47,6.12,7.4c2.7,0.92,6.22,0.64,10.55-0.85l25.11-8.65
			c2.09-0.72,3.81-0.8,5.16-0.23s2.28,1.62,2.81,3.17c0.53,1.54,0.45,2.97-0.25,4.28c-0.7,1.31-2.09,2.32-4.19,3.05l-24.35,8.39
			c-3.96,1.37-7.4,2.12-10.31,2.26c-2.91,0.14-5.74-0.51-8.48-1.97c-2.34-1.26-4.32-2.97-5.94-5.14s-3-4.89-4.13-8.16
			c-1.34-3.89-2.08-7.39-2.2-10.49c-0.13-3.1,0.38-5.84,1.54-8.22c1.15-2.38,2.96-4.46,5.43-6.24
			C520,193.48,523.14,191.93,526.96,190.61z"/>
		<path class="st1" d="M571.51,258.95l-29.67,23.49l31.74-2.73c2.06-0.18,3.65,0.13,4.76,0.93c1.11,0.8,1.73,1.95,1.85,3.45
			c0.13,1.55-0.28,2.82-1.23,3.81c-0.96,0.99-2.46,1.57-4.53,1.75l-41.97,3.61c-4.68,0.4-7.19-1.34-7.53-5.22
			c-0.08-0.97-0.02-1.86,0.19-2.66c0.21-0.8,0.59-1.57,1.14-2.3c0.55-0.73,1.2-1.42,1.97-2.08c0.76-0.65,1.54-1.31,2.34-1.96
			l29.35-22.95l-31.27,2.69c-2.04,0.18-3.62-0.17-4.75-1.02c-1.12-0.86-1.75-2.03-1.88-3.51c-0.13-1.53,0.29-2.8,1.27-3.81
			c0.98-1.01,2.47-1.61,4.49-1.78l41.17-3.54c1.75-0.15,3.13-0.07,4.16,0.23c1.13,0.37,2.09,1.05,2.87,2.06
			c0.78,1.01,1.23,2.13,1.33,3.37c0.08,0.97,0,1.82-0.26,2.53s-0.63,1.36-1.12,1.93c-0.49,0.57-1.13,1.16-1.94,1.78
			S572.38,258.29,571.51,258.95z"/>
		<path class="st1" d="M526.98,336.6l7.02-1.55l3.17-21.54l-6.42-3.53c-2.51-1.38-4.17-2.49-5-3.32s-1.12-2.05-0.89-3.64
			c0.2-1.35,0.87-2.47,2.01-3.36s2.34-1.24,3.59-1.06c0.72,0.11,1.45,0.34,2.19,0.69c0.74,0.35,1.75,0.91,3.04,1.67l32.41,18.63
			c0.93,0.53,2.05,1.17,3.36,1.92c1.31,0.75,2.37,1.49,3.2,2.24c0.82,0.75,1.45,1.67,1.87,2.75c0.42,1.08,0.52,2.36,0.3,3.83
			c-0.22,1.49-0.69,2.7-1.4,3.62c-0.71,0.92-1.56,1.62-2.54,2.1c-0.98,0.48-2.02,0.86-3.1,1.13c-1.09,0.27-2.53,0.61-4.34,1
			l-36.23,8.8c-2.76,0.7-4.73,0.96-5.92,0.79c-1.23-0.18-2.28-0.86-3.15-2.04s-1.2-2.48-0.99-3.93c0.12-0.84,0.38-1.54,0.77-2.1
			c0.39-0.56,0.87-1,1.45-1.34c0.58-0.33,1.44-0.66,2.58-0.97C525.1,337.08,526.11,336.82,526.98,336.6z M544.82,317.52l-2.33,15.83
			l23.05-4.77L544.82,317.52z"/>
		<path class="st1" d="M550.79,396.82l-37.59-4.92l27.12,26.85c1.43,1.4,2.4,2.41,2.93,3.02c0.53,0.61,0.9,1.38,1.11,2.3
			c0.21,0.92,0.04,1.95-0.51,3.08c-0.41,0.83-0.99,1.5-1.76,2.01c-0.76,0.51-1.59,0.79-2.48,0.86c-0.89,0.07-1.68-0.07-2.38-0.41
			c-0.48-0.24-0.97-0.56-1.46-0.96s-0.96-0.84-1.4-1.3c-0.44-0.46-0.89-0.93-1.37-1.4l-25.72-27.06c-1-1.01-1.94-1.98-2.82-2.93
			s-1.59-1.89-2.15-2.84c-0.55-0.95-0.87-2.01-0.95-3.17s0.2-2.4,0.84-3.72c0.64-1.31,1.45-2.3,2.4-2.95c0.96-0.66,2-1.06,3.11-1.2
			c1.12-0.14,2.31-0.16,3.59-0.05c1.28,0.11,2.62,0.25,4.02,0.43l36.78,3.83c0.66,0.08,1.32,0.15,1.97,0.21
			c0.65,0.06,1.32,0.17,2.03,0.34s1.27,0.36,1.71,0.58c1.12,0.55,1.91,1.49,2.39,2.84c0.48,1.35,0.39,2.7-0.28,4.05
			c-0.81,1.66-1.9,2.59-3.25,2.78C555.35,397.28,553.38,397.19,550.79,396.82z"/>
		<path class="st1" d="M502.63,467.9l15.26-19.09l-10.28-8.21l-14.05,17.58c-1.03,1.29-2.1,2.03-3.19,2.2
			c-1.09,0.17-2.11-0.12-3.06-0.88c-0.95-0.76-1.48-1.69-1.57-2.8c-0.1-1.11,0.38-2.32,1.43-3.63l14.05-17.58l-11.9-9.51
			l-15.79,19.75c-1.06,1.33-2.18,2.09-3.33,2.27c-1.16,0.18-2.25-0.14-3.28-0.96c-0.99-0.79-1.52-1.77-1.6-2.94
			c-0.08-1.17,0.41-2.42,1.48-3.75l18.41-23.03c1.48-1.85,2.95-2.85,4.41-3c1.46-0.16,3.11,0.5,4.94,1.96l31.45,25.14
			c1.22,0.97,2.07,1.95,2.55,2.93c0.48,0.98,0.59,1.99,0.33,3.04c-0.26,1.05-0.88,2.18-1.83,3.38l-17.88,22.38
			c-1.08,1.35-2.18,2.12-3.31,2.29c-1.12,0.18-2.17-0.12-3.14-0.9c-0.99-0.79-1.52-1.75-1.6-2.89
			C501.05,470.5,501.55,469.25,502.63,467.9z"/>
		<path class="st1" d="M462.24,475.45l2.97-2.37l-10.74-13.44c-1.41-1.77-2.07-3.39-1.95-4.85c0.11-1.46,0.79-2.69,2.05-3.7
			c1.35-1.08,2.75-1.48,4.19-1.2s2.84,1.27,4.19,2.96l25.72,32.2c1.46,1.83,2.11,3.48,1.94,4.95c-0.16,1.47-1.16,2.94-2.99,4.4
			l-13.79,11.01c-1.9,1.52-3.59,2.74-5.08,3.66s-2.96,1.56-4.44,1.93c-1.75,0.5-3.55,0.63-5.38,0.41c-1.83-0.22-3.55-0.8-5.16-1.75
			c-1.61-0.94-3.02-2.18-4.24-3.7c-2.49-3.12-3.6-6.32-3.33-9.59c0.27-3.27,1.88-6.73,4.84-10.37c-2.14,0.4-4.52,0.37-7.14-0.1
			c-2.62-0.47-5.17-1.15-7.65-2.05s-4.59-1.82-6.32-2.76c-1.73-0.94-2.81-1.67-3.24-2.21c-0.44-0.55-0.7-1.24-0.78-2.06
			c-0.08-0.82,0.06-1.64,0.42-2.44c0.36-0.8,0.94-1.52,1.74-2.16c0.95-0.76,1.93-1.17,2.93-1.24c1-0.07,2.01,0.05,3.03,0.36
			c1.01,0.31,2.45,0.82,4.32,1.51l7.91,2.94c2.88,1.1,5.23,1.81,7.05,2.13c1.83,0.32,3.4,0.28,4.71-0.11
			S460.73,476.65,462.24,475.45z M471.43,496.91l7.82-6.25l-9.19-11.5l-7.59,6.07c-2.04,1.63-3.61,3.17-4.72,4.63
			s-1.69,2.91-1.75,4.34c-0.06,1.43,0.51,2.89,1.7,4.38c0.93,1.16,2.04,1.95,3.34,2.36c1.3,0.41,2.64,0.42,4.04,0.02
			C466.4,500.58,468.52,499.24,471.43,496.91z"/>
		<path class="st1" d="M435.66,530.83l-12.8,6.01c-3.33,1.56-6.33,2.59-9,3.09c-2.67,0.5-5.38,0.36-8.11-0.43
			c-7.08-1.95-12.69-7.34-16.83-16.16c-1.37-2.91-2.36-5.69-2.98-8.33c-0.62-2.64-0.85-5.18-0.7-7.6c0.15-2.43,0.7-4.79,1.64-7.08
			c0.75-1.78,1.74-3.38,2.95-4.81c1.21-1.43,2.64-2.71,4.28-3.82c1.64-1.12,3.57-2.2,5.8-3.25l12.8-6.01
			c1.79-0.84,3.26-1.2,4.42-1.08c1.16,0.12,2.1,0.6,2.84,1.45s1.47,2.06,2.21,3.63l16.68,35.56c0.99,2.12,1.24,3.87,0.74,5.26
			S437.77,529.84,435.66,530.83z M428.21,524.84l-15.44-32.91l-7.44,3.49c-1.63,0.77-2.89,1.41-3.78,1.93s-1.74,1.19-2.57,2.01
			c-0.83,0.82-1.45,1.72-1.88,2.7c-1.98,4.32-1.38,9.88,1.81,16.67c2.25,4.79,4.65,8.03,7.21,9.73c2.56,1.7,5.05,2.38,7.48,2.04
			s5.13-1.22,8.13-2.62L428.21,524.84z"/>
		<path class="st1" d="M341.45,513.12l3.93,6.03l21.28-4.63l1.04-7.26c0.41-2.83,0.86-4.78,1.35-5.85c0.49-1.07,1.52-1.77,3.09-2.11
			c1.33-0.29,2.62-0.06,3.85,0.69c1.24,0.75,1.99,1.75,2.26,2.99c0.16,0.71,0.2,1.48,0.12,2.29c-0.07,0.81-0.23,1.96-0.49,3.43
			l-6,36.9c-0.17,1.06-0.37,2.33-0.61,3.82c-0.24,1.48-0.56,2.75-0.97,3.78c-0.41,1.04-1.05,1.94-1.92,2.72
			c-0.87,0.77-2.02,1.32-3.48,1.63c-1.48,0.32-2.77,0.31-3.88-0.04c-1.11-0.34-2.06-0.89-2.86-1.64c-0.8-0.75-1.52-1.58-2.15-2.5
			c-0.64-0.92-1.46-2.16-2.47-3.71l-21.02-30.8c-1.63-2.34-2.57-4.09-2.83-5.26c-0.26-1.21,0-2.44,0.79-3.67
			c0.79-1.23,1.9-2,3.33-2.31c0.83-0.18,1.58-0.19,2.24-0.02c0.66,0.17,1.25,0.46,1.76,0.89c0.52,0.42,1.12,1.11,1.82,2.07
			S340.94,512.39,341.45,513.12z M365.6,523.09l-15.64,3.4l12.59,19.88L365.6,523.09z"/>
		<path class="st1" d="M315.96,563.2l-14.14-0.28c-3.68-0.07-6.82-0.48-9.44-1.21c-2.62-0.73-4.98-2.06-7.08-3.98
			c-5.48-4.88-8.13-12.2-7.93-21.94c0.06-3.21,0.4-6.14,1.01-8.79c0.61-2.64,1.52-5.02,2.74-7.13c1.21-2.11,2.75-3.98,4.61-5.63
			c1.46-1.26,3.05-2.27,4.77-3.01c1.72-0.75,3.56-1.26,5.53-1.54c1.97-0.28,4.18-0.39,6.64-0.34l14.14,0.28
			c1.97,0.04,3.45,0.37,4.44,0.98c0.99,0.62,1.62,1.47,1.9,2.56c0.28,1.09,0.41,2.5,0.37,4.23l-0.78,39.27
			c-0.05,2.34-0.6,4.02-1.67,5.05C320,562.76,318.3,563.25,315.96,563.2z M311.93,554.53l0.72-36.35l-8.22-0.16
			c-1.8-0.04-3.22-0.02-4.24,0.06c-1.02,0.08-2.09,0.3-3.19,0.67c-1.1,0.37-2.06,0.9-2.88,1.59c-3.69,3-5.61,8.24-5.76,15.75
			c-0.1,5.28,0.62,9.26,2.16,11.92c1.54,2.66,3.48,4.38,5.8,5.14s5.14,1.18,8.45,1.25L311.93,554.53z"/>
		<path class="st1" d="M210.16,506.05c1.04-3.07,2.77-5.55,5.18-7.46c2.41-1.91,5.37-3.03,8.89-3.38c3.51-0.35,7.36,0.19,11.53,1.61
			c5,1.7,8.81,4.05,11.42,7.05c1.84,2.14,3.1,4.6,3.77,7.36c0.67,2.76,0.64,5.21-0.09,7.36c-0.42,1.25-1.22,2.16-2.39,2.76
			c-1.17,0.59-2.42,0.66-3.76,0.21c-1.08-0.37-1.88-1.03-2.4-1.97c-0.51-0.95-0.8-2.19-0.87-3.73c-0.1-1.83-0.33-3.42-0.72-4.76
			c-0.38-1.34-1.13-2.59-2.25-3.76c-1.12-1.17-2.79-2.12-5-2.88c-3.04-1.04-5.76-1.17-8.14-0.4c-2.38,0.77-3.94,2.22-4.66,4.34
			c-0.57,1.68-0.52,3.22,0.15,4.62c0.67,1.4,1.72,2.65,3.16,3.76s3.41,2.43,5.92,3.98c3.35,2.09,6.06,4.13,8.13,6.1
			c2.07,1.98,3.49,4.2,4.26,6.66s0.66,5.16-0.34,8.09c-0.95,2.79-2.55,5.01-4.81,6.66c-2.26,1.65-5.03,2.57-8.31,2.75
			c-3.28,0.18-6.87-0.39-10.76-1.71c-3.11-1.06-5.67-2.36-7.68-3.91c-2.01-1.54-3.54-3.21-4.61-5c-1.06-1.79-1.7-3.51-1.92-5.15
			c-0.21-1.64-0.09-3.13,0.36-4.47c0.42-1.22,1.22-2.18,2.42-2.86c1.2-0.69,2.44-0.81,3.73-0.37c1.18,0.4,1.97,1,2.38,1.79
			c0.41,0.8,0.75,1.98,1.01,3.56c0.27,2.23,0.87,4.1,1.8,5.61c0.93,1.51,2.82,2.75,5.68,3.73c2.65,0.9,4.99,1.05,7.01,0.44
			c2.02-0.61,3.31-1.74,3.87-3.37c0.35-1.02,0.37-1.99,0.06-2.91c-0.3-0.93-0.85-1.82-1.64-2.68c-0.79-0.86-1.63-1.61-2.52-2.25
			s-2.38-1.63-4.46-2.98c-2.63-1.64-4.97-3.26-7.01-4.86c-2.04-1.6-3.68-3.25-4.92-4.95s-2.01-3.6-2.32-5.67
			C209.01,510.92,209.29,508.61,210.16,506.05z"/>
		<path class="st1" d="M206.17,491.66l-19.74,37.3c-1.03,1.94-2.24,3.16-3.63,3.66c-1.4,0.5-2.79,0.38-4.19-0.36
			c-1.44-0.76-2.36-1.86-2.74-3.29c-0.39-1.43-0.06-3.13,0.98-5.08l19.74-37.3c1.04-1.96,2.26-3.19,3.67-3.68s2.83-0.36,4.27,0.4
			c1.38,0.73,2.25,1.82,2.63,3.27S207.19,489.72,206.17,491.66z"/>
		<path class="st1" d="M153.17,509.08l23.11-31.39l-17.71-13.04c-1.41-1.04-2.24-2.18-2.49-3.42c-0.25-1.24,0.01-2.38,0.77-3.42
			c0.78-1.06,1.78-1.64,3.01-1.75c1.23-0.11,2.56,0.37,3.99,1.42l21.1,15.53c1.9,1.4,2.96,2.83,3.17,4.29
			c0.21,1.46-0.37,3.13-1.76,5.01l-24.46,33.22c-1.3,1.76-2.67,2.8-4.12,3.09s-2.81-0.03-4.11-0.98c-1.31-0.97-2.06-2.19-2.23-3.66
			C151.29,512.49,151.86,510.86,153.17,509.08z"/>
		<path class="st1" d="M99,454.92l16.34,18.18l9.78-8.79l-15.04-16.74c-1.11-1.23-1.66-2.4-1.65-3.5c0.01-1.1,0.46-2.06,1.37-2.88
			c0.91-0.81,1.91-1.18,3.02-1.09s2.22,0.75,3.35,2l15.04,16.74l11.33-10.18l-16.9-18.8c-1.14-1.27-1.7-2.49-1.69-3.66
			c0.01-1.17,0.51-2.2,1.48-3.08c0.94-0.85,2-1.21,3.16-1.1c1.17,0.11,2.32,0.8,3.46,2.07l19.71,21.93
			c1.58,1.76,2.33,3.37,2.24,4.84c-0.09,1.47-1,2.99-2.74,4.55l-29.95,26.91c-1.16,1.04-2.26,1.72-3.3,2.04
			c-1.04,0.32-2.06,0.26-3.06-0.18s-2-1.22-3.03-2.36l-19.15-21.3c-1.16-1.29-1.73-2.5-1.72-3.64c0.01-1.14,0.48-2.12,1.4-2.95
			c0.94-0.85,1.98-1.21,3.11-1.1S97.84,453.64,99,454.92z"/>
		<path class="st1" d="M76.35,426.26l17.62-33.49l-27.92,15.35c-1.81,1-3.39,1.36-4.72,1.08c-1.34-0.28-2.37-1.08-3.09-2.41
			c-0.75-1.37-0.89-2.69-0.42-3.98c0.47-1.29,1.62-2.43,3.43-3.43l36.92-20.29c4.12-2.26,7.12-1.69,9,1.73
			c0.47,0.85,0.77,1.69,0.9,2.51c0.13,0.82,0.09,1.67-0.11,2.56c-0.2,0.89-0.52,1.79-0.96,2.69s-0.88,1.82-1.35,2.74l-17.54,32.86
			l27.5-15.12c1.79-0.99,3.38-1.31,4.75-0.99s2.42,1.14,3.14,2.45c0.74,1.34,0.87,2.68,0.38,4c-0.48,1.32-1.61,2.47-3.38,3.44
			l-36.21,19.9c-1.54,0.84-2.84,1.34-3.9,1.48c-1.18,0.12-2.34-0.12-3.46-0.72c-1.12-0.6-1.99-1.45-2.58-2.54
			c-0.47-0.85-0.73-1.66-0.79-2.42c-0.06-0.76,0.02-1.5,0.24-2.22c0.22-0.72,0.57-1.52,1.05-2.41
			C75.31,428.14,75.82,427.22,76.35,426.26z"/>
		<path class="st1" d="M72.23,328.07c1.65-0.44,3.54-0.5,5.67-0.2c2.13,0.3,4.36,1.08,6.67,2.33c2.31,1.25,4.4,3.08,6.27,5.48
			c1.87,2.4,3.29,5.4,4.24,9.01c0.72,2.73,1.12,5.28,1.2,7.66c0.08,2.38-0.19,4.62-0.8,6.73c-0.61,2.11-1.61,4.17-2.99,6.18
			c-1.26,1.8-2.77,3.44-4.53,4.94c-1.76,1.5-3.71,2.79-5.87,3.88s-4.52,1.97-7.08,2.65c-4.17,1.1-8.06,1.49-11.68,1.15
			c-3.62-0.34-6.9-1.33-9.84-2.97c-2.94-1.64-5.43-3.81-7.46-6.53c-2.03-2.71-3.5-5.79-4.41-9.22c-1.11-4.19-1.26-8.14-0.46-11.86
			c0.8-3.72,2.21-6.77,4.2-9.17c2-2.39,4.09-3.88,6.28-4.46c1.2-0.32,2.37-0.18,3.52,0.43c1.14,0.6,1.87,1.51,2.19,2.71
			c0.36,1.34,0.31,2.43-0.15,3.27c-0.46,0.84-1.35,1.88-2.69,3.11c-2.2,2.05-3.7,4.16-4.48,6.35c-0.78,2.19-0.81,4.63-0.09,7.34
			c1.14,4.31,3.69,7.31,7.64,8.99c3.95,1.69,8.94,1.73,14.97,0.13c4.03-1.07,7.23-2.52,9.6-4.36s3.94-3.97,4.71-6.39
			c0.77-2.42,0.79-5.02,0.05-7.8c-0.8-3.01-2.22-5.36-4.27-7.05c-2.05-1.69-4.66-2.68-7.84-2.97c-1.48-0.08-2.74-0.34-3.78-0.77
			c-1.03-0.43-1.74-1.38-2.13-2.84c-0.33-1.25-0.18-2.43,0.45-3.56C69.97,329.15,70.94,328.42,72.23,328.07z"/>
		<path class="st1" d="M83.06,316.03l-42.03,3.74c-2.18,0.19-3.87-0.16-5.05-1.05c-1.18-0.9-1.84-2.13-1.98-3.71
			c-0.14-1.62,0.28-2.99,1.27-4.09c0.99-1.1,2.59-1.75,4.8-1.95l42.03-3.74c2.21-0.2,3.9,0.16,5.08,1.07
			c1.18,0.91,1.84,2.18,1.99,3.8c0.14,1.55-0.3,2.88-1.31,3.99C86.84,315.18,85.24,315.84,83.06,316.03z"/>
		<path class="st1" d="M33.93,266.61c0.48-5.53,2.02-10.18,4.61-13.96c2.59-3.77,6.04-6.5,10.36-8.17
			c4.32-1.68,9.26-2.27,14.84-1.78c4.13,0.36,7.83,1.25,11.1,2.66c3.28,1.41,6.05,3.34,8.33,5.79s3.93,5.36,4.96,8.72
			c1.03,3.37,1.36,7.15,0.99,11.35c-0.37,4.17-1.37,7.85-3,11.03c-1.64,3.18-3.77,5.77-6.42,7.76c-2.64,1.99-5.74,3.4-9.28,4.23
			c-3.54,0.83-7.32,1.07-11.32,0.72c-4.1-0.36-7.81-1.28-11.13-2.75s-6.08-3.44-8.29-5.88s-3.81-5.32-4.8-8.64
			C33.9,274.39,33.58,270.69,33.93,266.61z M62.72,253.65c-3.91-0.34-7.35-0.01-10.32,1c-2.97,1.01-5.3,2.62-6.97,4.84
			c-1.67,2.21-2.64,4.84-2.91,7.87c-0.19,2.16,0.04,4.19,0.7,6.09c0.65,1.9,1.7,3.58,3.13,5.04c1.44,1.46,3.33,2.68,5.68,3.65
			c2.35,0.98,5.03,1.59,8.03,1.86c3.03,0.27,5.81,0.12,8.33-0.43c2.52-0.55,4.64-1.45,6.38-2.71c1.74-1.25,3.08-2.75,4.04-4.49
			c0.96-1.74,1.53-3.69,1.72-5.85c0.24-2.77-0.23-5.37-1.41-7.81c-1.18-2.44-3.15-4.47-5.92-6.09
			C70.44,255.02,66.94,254.02,62.72,253.65z"/>
		<path class="st1" d="M90.31,195.23c3.07,1.03,5.57,2.75,7.48,5.15c1.92,2.4,3.06,5.36,3.42,8.87c0.36,3.51-0.16,7.36-1.56,11.54
			c-1.68,5.01-4.01,8.83-7,11.45c-2.14,1.85-4.58,3.12-7.34,3.8s-5.21,0.66-7.36-0.06c-1.25-0.42-2.17-1.21-2.77-2.37
			c-0.6-1.16-0.67-2.42-0.22-3.76c0.36-1.09,1.02-1.89,1.96-2.41c0.94-0.52,2.19-0.81,3.73-0.89c1.83-0.1,3.42-0.35,4.76-0.74
			c1.34-0.39,2.59-1.14,3.75-2.27c1.16-1.13,2.11-2.8,2.86-5.02c1.02-3.05,1.14-5.76,0.36-8.15c-0.78-2.38-2.23-3.93-4.36-4.64
			c-1.69-0.56-3.23-0.51-4.62,0.17c-1.4,0.68-2.64,1.73-3.74,3.18s-2.42,3.42-3.96,5.94c-2.08,3.36-4.1,6.08-6.07,8.16
			c-1.97,2.08-4.18,3.51-6.64,4.29s-5.15,0.68-8.09-0.3c-2.79-0.94-5.02-2.53-6.68-4.78c-1.66-2.25-2.59-5.02-2.79-8.29
			c-0.2-3.28,0.36-6.87,1.67-10.77c1.05-3.12,2.34-5.68,3.87-7.7c1.54-2.01,3.2-3.56,4.98-4.63s3.5-1.72,5.14-1.94
			c1.64-0.22,3.13-0.11,4.47,0.34c1.22,0.41,2.18,1.21,2.87,2.41c0.69,1.2,0.82,2.44,0.39,3.73c-0.4,1.18-0.99,1.97-1.78,2.39
			c-0.79,0.42-1.98,0.76-3.56,1.02c-2.23,0.28-4.09,0.89-5.6,1.82c-1.51,0.93-2.74,2.83-3.7,5.7c-0.89,2.66-1.03,4.99-0.41,7.01
			c0.62,2.02,1.75,3.3,3.39,3.85c1.02,0.34,1.99,0.36,2.91,0.05c0.93-0.31,1.82-0.86,2.67-1.65c0.86-0.79,1.6-1.63,2.23-2.53
			c0.63-0.89,1.62-2.38,2.97-4.48c1.63-2.64,3.24-4.98,4.82-7.03c1.59-2.05,3.23-3.7,4.93-4.94c1.7-1.24,3.59-2.02,5.66-2.34
			C85.43,194.1,87.75,194.37,90.31,195.23z"/>
		<path class="st1" d="M121.02,162.11l-7.07-1.32l-11.35,18.59l4.53,5.76c1.77,2.25,2.87,3.92,3.3,5.01
			c0.43,1.09,0.23,2.32-0.61,3.7c-0.71,1.16-1.77,1.93-3.16,2.31c-1.4,0.37-2.64,0.23-3.72-0.43c-0.62-0.38-1.2-0.88-1.74-1.49
			c-0.54-0.61-1.25-1.52-2.15-2.72L76.5,161.69c-0.65-0.85-1.43-1.88-2.34-3.08c-0.91-1.2-1.6-2.3-2.06-3.31
			c-0.47-1.01-0.68-2.1-0.64-3.26c0.04-1.16,0.44-2.38,1.22-3.64c0.79-1.29,1.69-2.22,2.7-2.78c1.02-0.56,2.07-0.88,3.16-0.94
			s2.19,0,3.3,0.17c1.11,0.18,2.57,0.43,4.39,0.77l36.79,6.07c2.82,0.44,4.73,0.96,5.75,1.59c1.06,0.65,1.76,1.68,2.11,3.11
			c0.34,1.42,0.14,2.76-0.63,4.01c-0.44,0.73-0.96,1.27-1.53,1.63c-0.58,0.36-1.2,0.58-1.86,0.66c-0.66,0.08-1.58,0.04-2.75-0.12
			C122.93,162.4,121.9,162.25,121.02,162.11z M97.13,172.7l8.34-13.66l-23.07-4.63L97.13,172.7z"/>
	</g>
</g>
<g id="Capa_2">
	<circle cx="303.35" cy="283.12" r="177.33"/>
	<g>
		<path class="st1" d="M258.58,273.75c5.64,23.32,7.93,63.42-6.07,83.85c1.33-3.32,2.34-6.69,3.1-10.11
			C260.6,323.85,258.82,297.83,258.58,273.75L258.58,273.75z"/>
	</g>
	<g>
		<path class="st1" d="M337.1,277.36c0,0-0.02-1.4-0.02-1.4l-0.01-0.16c-0.31-0.03,0.42,0.03,0.34,0.03c0,0,0,0.01,0,0.01
			c0,0.03,0,0.1,0,0.13c0,0.21,0.01,0.82,0.01,1.04c0.24,13.8,0.51,27.72,1.83,41.45c1.05,10.88,2.58,21.85,6.45,32.12
			c1.3,3.41,2.96,6.68,5.14,9.71c-18.34-16.77-18-60.3-14.03-83.33c0,0,0.13-0.69,0.13-0.69l0.07-0.34c0,0,0.02-0.09,0.02-0.09
			l0.01-0.05l0.01-0.03c-0.07-0.03,0.66,0.05,0.35,0.04C337.33,276.33,337.21,276.85,337.1,277.36L337.1,277.36z"/>
	</g>
	<g>
		<path class="st1" d="M242.64,167.47c-22.71,15.46-47.23,38.18-51.17,66.63c-2.34,20.52-4.5,41.41-1.04,61.9
			c2.3,14.38,8.9,34.11,12.76,48.31c-5.98-15.66-12.37-31.27-15.82-47.74c-4.29-20.75-2.34-42.14,0.24-62.96
			C191.82,204.14,217.72,181.03,242.64,167.47L242.64,167.47z"/>
	</g>
	<g>
		<path class="st1" d="M216.84,167.47c-23.07,15.13-43.5,38.44-46.59,66.67c-0.96,9.37-1.92,18.8-2.59,28.18
			c-0.54,9.14-1.43,18.65,1.6,27.36c1.48,4.35,3.58,8.64,5.49,12.87c9.88,21.33,20.16,42.98,29.7,64.45
			c-11.45-20.73-22.43-41.7-32.87-62.95c-2.07-4.35-4.23-8.54-5.9-13.12c-1.74-4.65-2.33-9.7-2.45-14.51
			c-0.16-14.36,1.75-28.49,3.27-42.7C170.14,204.69,191.85,180.86,216.84,167.47L216.84,167.47z"/>
	</g>
	<g>
		<path class="st1" d="M367.57,167.47c10.65,19.94,21.6,41.16,31.69,61.35c4.41,8.75,9.1,18.28,13.3,27.16
			c0.43,1.03,1.08,2.09,1.26,3.25c0.02,0.11,0,0.1,0.05,0.11c4.67,10.75,8.72,22.16,11.45,33.67c2.6,11.41,3.9,23.22,2.55,34.92
			c-2.76,22.36-2.34,48.12-18.4,66.01c-6.82,7.64-15.78,12.98-25.29,16.51c0,0-4.09,1.4-4.09,1.4
			c10.57-4.19,20.73-10.25,27.88-19.18c14.93-18.32,13.6-42.82,16.14-65.2c1.17-11.22-0.1-22.58-2.68-33.57
			c-2.54-11.15-6.4-21.86-10.73-32.46c-0.23-0.56-0.46-1.21-0.56-1.8c0,0-0.04-0.26-0.04-0.26c-0.01-0.06-0.01-0.05-0.02-0.03
			c-0.03,0.08-0.03,0.16,0,0.23c0.02,0.06-0.01-0.03-0.02-0.06c0,0-0.05-0.12-0.05-0.12c-1.47-3.61-4.59-10.02-6.22-13.62
			C392.59,221.9,378.32,191.49,367.57,167.47L367.57,167.47z"/>
	</g>
	<g>
		<path class="st1" d="M397.16,167.47c17.82,18.79,34.15,41.11,42.43,65.88c1.97,6.38,3.38,13.08,3.27,19.81
			c-0.01,1.41-0.04,4.27-0.06,5.68c-0.38,9.24-1.68,18.93-3.44,28.01c-3.16,15.6-7.56,30.97-13.55,45.71
			c6.64-24.19,12.15-48.77,13.11-73.84c0-1.38,0.01-4.14,0.01-5.51c0.01-6.35-1.27-12.6-3.07-18.69
			C427.78,209.79,412.79,188.1,397.16,167.47L397.16,167.47z"/>
	</g>
	<g>
		<path class="st1" d="M237.33,228.59c1.64,11.32,4.42,26.64,13,34.72c8.22,8.54,17.21,16.61,26.95,23.37
			c4.82,3.28,9.89,6.34,15.3,8.44c5.36,2.14,11.3,3.18,16.84,1.59c-0.12-0.03-0.27,0-0.35,0.05c0,0,0.18-0.09,0.18-0.09
			c3.11-1.91,5.85-4.5,8.66-6.86c6.15-5.41,12.24-10.92,18.24-16.5c0,0,4.52-4.18,4.52-4.18c7.65-6.73,13.7-14.88,18.76-23.77
			c4.02-7.1,7.32-14.63,9.93-22.44c-1.82,8.03-4.64,15.86-8.28,23.31c-4.57,9.25-10.58,18.11-18.18,25.23c0,0-4.41,4.33-4.41,4.33
			c-5.94,5.73-11.85,11.45-18.04,16.92c-3.21,2.68-6.2,5.76-9.95,7.73c-0.33,0.12-0.73,0.2-1.1,0.23c0,0,0.58-0.09,0.58-0.09
			c-6.31,1.96-12.96,0.49-18.85-1.82c-5.75-2.28-11.02-5.48-16-9.06c-9.85-7.13-18.63-15.45-26.65-24.58
			C239.9,256.16,237.91,240.99,237.33,228.59L237.33,228.59z"/>
	</g>
	<g>
		<path class="st1" d="M367.26,229.8c7.27-6.58,12.45-14.64,15.21-23.99c0.46-1.34,0.75-2.73,1.31-4.14
			C386.77,213.28,379.19,227.14,367.26,229.8L367.26,229.8z"/>
	</g>
	<g>
		<path class="st1" d="M313.37,184.31c7.14-7.32,25.69-18.68,36.08-16.07c-5.48,1.24-12.68,5.7-17.82,8.1
			C325.67,179.29,319.77,182.22,313.37,184.31L313.37,184.31z"/>
	</g>
	<g>
		<path class="st1" d="M330.93,201.66c6.9-0.69,14.11-1.08,21.05-1.4c6.8-1.8,12.02-9.01,15.16-15.41c0,0,1.7,2.83,1.7,2.83
			c-8.27-0.15-19.88-0.48-28.02-0.58c-4.46,0.05-8.99-0.65-12.89,2.06c-3.8,2.47-6.73,6.28-9.02,10.22
			c1.52-4.54,4.02-8.81,7.78-11.94c3.74-3.38,9.29-3.39,14.06-3.67c9.4-0.41,18.8-0.36,28.2-0.01c0,0,3.16,0.13,3.16,0.13
			s-1.46,2.7-1.46,2.7c-3.83,7.4-9.85,15.18-18.63,16.47C345.06,202.74,337.85,202.36,330.93,201.66L330.93,201.66z"/>
	</g>
	<g>
		<path class="st2" d="M269.9,265.82l0.95-0.97c0.84,0.68,1.7,1.02,2.6,1.02c0.62,0,1.13-0.18,1.53-0.53
			c0.4-0.35,0.59-0.81,0.59-1.36c0-0.54-0.37-1.15-1.12-1.81l-0.96-0.85c-0.71-0.63-1.16-1.07-1.33-1.32
			c-0.17-0.25-0.26-0.6-0.26-1.02c0-0.85,0.36-1.58,1.08-2.2c0.72-0.62,1.58-0.92,2.57-0.92c0.63,0,1.37,0.19,2.22,0.57l-0.34,1.71
			h-0.43c0.01-0.14,0.01-0.24,0.01-0.29c0-0.43-0.17-0.78-0.52-1.04c-0.35-0.26-0.8-0.4-1.37-0.4c-0.59,0-1.08,0.17-1.48,0.52
			c-0.4,0.35-0.6,0.78-0.6,1.29c0,0.35,0.1,0.66,0.3,0.95c0.2,0.29,0.62,0.7,1.26,1.25l0.8,0.7c0.9,0.77,1.34,1.49,1.34,2.15
			c0,0.88-0.42,1.63-1.26,2.26c-0.84,0.63-1.84,0.94-3.01,0.94C271.61,266.45,270.74,266.24,269.9,265.82z"/>
		<path class="st2" d="M284.42,262.5h-0.12c-1.29,2.58-2.55,3.87-3.77,3.87c-0.73,0-1.09-0.43-1.09-1.29c0-0.24,0.04-0.55,0.11-0.92
			l0.66-3.35c0.1-0.52,0.16-0.86,0.16-1.02c0-0.28-0.13-0.42-0.4-0.42c-0.45,0-1.12,0.5-2.03,1.49l0.12-0.63
			c0.99-1.07,1.89-1.6,2.68-1.6c0.66,0,0.99,0.34,0.99,1.02c0,0.23-0.06,0.61-0.16,1.16l-0.67,3.35c-0.06,0.3-0.09,0.51-0.09,0.64
			c0,0.37,0.13,0.55,0.4,0.55c0.34,0,0.86-0.41,1.55-1.24c0.69-0.82,1.33-1.78,1.91-2.88l0.49-2.45l1.45-0.08l-0.5,2.1l-0.67,3.37
			c-0.1,0.52-0.16,0.86-0.16,1.02c0,0.29,0.13,0.43,0.4,0.43c0.45,0,1.13-0.5,2.03-1.5l-0.12,0.63c-1,1.07-1.89,1.6-2.68,1.6
			c-0.66,0-0.99-0.34-0.99-1.03c0-0.23,0.05-0.62,0.16-1.16L284.42,262.5z"/>
		<path class="st2" d="M287.42,265.97l0.9-0.92c0.59,0.43,1.19,0.65,1.8,0.65c0.38,0,0.69-0.1,0.95-0.3
			c0.26-0.2,0.39-0.44,0.39-0.73c0-0.32-0.26-0.76-0.77-1.32l-0.62-0.68c-0.6-0.66-0.91-1.22-0.91-1.66c0-0.62,0.29-1.17,0.88-1.65
			c0.59-0.48,1.26-0.72,2.01-0.72c0.41,0,0.88,0.09,1.39,0.26l-0.3,1.51h-0.44l0.02-0.12c0.01-0.04,0.01-0.09,0.01-0.14
			c0-0.61-0.39-0.92-1.18-0.92c-0.88,0-1.33,0.35-1.33,1.06c0,0.36,0.26,0.84,0.79,1.43l0.56,0.62c0.61,0.69,0.91,1.25,0.91,1.69
			c0,0.61-0.32,1.15-0.97,1.63c-0.65,0.48-1.38,0.72-2.2,0.72C288.75,266.37,288.12,266.24,287.42,265.97z"/>
		<path class="st2" d="M300.46,262.5h-0.12c-1.29,2.58-2.55,3.87-3.77,3.87c-0.73,0-1.09-0.43-1.09-1.29c0-0.24,0.04-0.55,0.11-0.92
			l0.66-3.35c0.1-0.52,0.16-0.86,0.16-1.02c0-0.28-0.13-0.42-0.4-0.42c-0.45,0-1.12,0.5-2.03,1.49l0.12-0.63
			c0.99-1.07,1.89-1.6,2.68-1.6c0.66,0,0.99,0.34,0.99,1.02c0,0.23-0.06,0.61-0.16,1.16l-0.67,3.35c-0.06,0.3-0.09,0.51-0.09,0.64
			c0,0.37,0.13,0.55,0.4,0.55c0.34,0,0.86-0.41,1.55-1.24c0.69-0.82,1.33-1.78,1.91-2.88l0.49-2.45l1.45-0.08l-0.5,2.1l-0.67,3.37
			c-0.1,0.52-0.16,0.86-0.16,1.02c0,0.29,0.13,0.43,0.4,0.43c0.45,0,1.13-0.5,2.03-1.5l-0.12,0.63c-1,1.07-1.89,1.6-2.68,1.6
			c-0.66,0-0.99-0.34-0.99-1.03c0-0.23,0.05-0.62,0.16-1.16L300.46,262.5z"/>
		<path class="st2" d="M304.91,266.28l0.5-2.1l0.66-3.33c0.07-0.34,0.1-0.63,0.1-0.87c0-0.39-0.14-0.59-0.41-0.59
			c-0.48,0-1.17,0.51-2.07,1.54l0.12-0.61c1.05-1.13,1.96-1.7,2.73-1.7c0.65,0,0.98,0.38,0.98,1.12c0,0.33-0.04,0.7-0.12,1.1
			l-0.33,1.64h0.09c0.54-1.14,1.18-2.07,1.92-2.79c0.74-0.72,1.41-1.08,2.03-1.08c0.32,0,0.6,0.07,0.85,0.21l-0.91,1.23
			c-0.27-0.18-0.5-0.27-0.68-0.27c-0.89,0-2.07,1.3-3.54,3.9l-0.5,2.49L304.91,266.28z"/>
		<path class="st2" d="M312.77,266.28l0.5-2.1l0.66-3.33c0.07-0.34,0.1-0.63,0.1-0.87c0-0.39-0.14-0.59-0.41-0.59
			c-0.48,0-1.17,0.51-2.07,1.54l0.12-0.61c1.05-1.13,1.96-1.7,2.73-1.7c0.65,0,0.98,0.38,0.98,1.12c0,0.33-0.04,0.7-0.12,1.1
			l-0.33,1.64h0.09c0.54-1.14,1.18-2.07,1.92-2.79c0.74-0.72,1.41-1.08,2.03-1.08c0.32,0,0.6,0.07,0.85,0.21l-0.91,1.23
			c-0.27-0.18-0.5-0.27-0.68-0.27c-0.89,0-2.07,1.3-3.54,3.9l-0.5,2.49L312.77,266.28z"/>
		<path class="st2" d="M322.16,266.37c-0.6,0-1.09-0.23-1.49-0.7c-0.4-0.47-0.6-1.05-0.6-1.74c0-1.31,0.5-2.52,1.49-3.63
			c0.99-1.11,2.07-1.67,3.24-1.67c0.63,0,1.15,0.23,1.56,0.68c0.41,0.45,0.61,1.03,0.61,1.74c0,1.36-0.5,2.58-1.49,3.68
			C324.5,265.83,323.39,266.37,322.16,266.37z M322.94,265.78c0.67,0,1.26-0.43,1.78-1.3c0.51-0.87,0.77-1.87,0.77-3.02
			c0-1.5-0.46-2.26-1.38-2.26c-0.65,0-1.24,0.45-1.76,1.34c-0.52,0.89-0.78,1.9-0.78,3.02
			C321.57,265.04,322.03,265.78,322.94,265.78z"/>
		<path class="st2" d="M327.31,265.97l0.9-0.92c0.59,0.43,1.19,0.65,1.8,0.65c0.38,0,0.69-0.1,0.95-0.3
			c0.26-0.2,0.39-0.44,0.39-0.73c0-0.32-0.26-0.76-0.77-1.32l-0.62-0.68c-0.61-0.66-0.91-1.22-0.91-1.66c0-0.62,0.29-1.17,0.88-1.65
			c0.59-0.48,1.26-0.72,2.01-0.72c0.41,0,0.88,0.09,1.39,0.26l-0.3,1.51h-0.44l0.02-0.12c0.01-0.04,0.01-0.09,0.01-0.14
			c0-0.61-0.39-0.92-1.18-0.92c-0.88,0-1.33,0.35-1.33,1.06c0,0.36,0.26,0.84,0.79,1.43l0.56,0.62c0.61,0.69,0.91,1.25,0.91,1.69
			c0,0.61-0.32,1.15-0.97,1.63c-0.65,0.48-1.38,0.72-2.2,0.72C328.64,266.37,328,266.24,327.31,265.97z"/>
	</g>
	<path class="st3" d="M290.4,238.72h2.81c1,0,1.93,0.44,2.64,1.15c1.3,1.31,4.02,2.88,8.19-0.38c0.63-0.49,1.41-0.77,2.22-0.77h2.7"
		/>
	<path class="st3" d="M289.37,270.55c0,0,9.36,7.21,22.01,0"/>
	<path class="st3" d="M288.61,253.26c0,0,9.33-7.24,22.01-0.08"/>
	<g>
		<path class="st1" d="M369.82,179.19c3.03,0.78,3.17,5.21,0.65,6.68c-0.76,0.49-1.63,0.67-2.53,0.53c0.12-0.49,0.29-0.84,0.43-1.19
			C369.28,182.86,369.55,182.23,369.82,179.19L369.82,179.19z"/>
	</g>
	<g>
		<path class="st1" d="M366.6,179.19c3.06,0.69,3.33,5.11,0.86,6.66c-0.75,0.51-1.61,0.72-2.52,0.61c0.11-0.49,0.26-0.84,0.39-1.2
			C366.18,182.88,366.42,182.24,366.6,179.19L366.6,179.19z"/>
	</g>
	<g>
		<path class="st1" d="M363.16,179.19c3.08,0.56,3.54,4.97,1.13,6.62c-0.73,0.54-1.58,0.79-2.49,0.71c0.09-0.49,0.23-0.85,0.34-1.21
			C362.89,182.9,363.11,182.25,363.16,179.19L363.16,179.19z"/>
	</g>
	<g>
		<path class="st1" d="M359.8,179.2c2.96,0.97,2.78,5.46,0.17,6.71c-0.8,0.43-1.68,0.55-2.57,0.35c0.16-0.48,0.35-0.81,0.51-1.15
			C359,182.83,359.31,182.22,359.8,179.2L359.8,179.2z"/>
	</g>
	<g>
		<path class="st1" d="M355.71,179.19c3.08,0.57,3.52,4.98,1.11,6.62c-0.73,0.54-1.58,0.78-2.49,0.71c0.09-0.49,0.23-0.85,0.35-1.21
			C355.43,182.9,355.65,182.25,355.71,179.19L355.71,179.19z"/>
	</g>
	<g>
		<path class="st1" d="M352.2,179.19c3.07,0.62,3.44,5.03,1,6.64c-0.74,0.53-1.59,0.76-2.5,0.67c0.09-0.49,0.24-0.85,0.37-1.21
			C351.86,182.89,352.09,182.25,352.2,179.19L352.2,179.19z"/>
	</g>
	<g>
		<path class="st1" d="M348.94,178.72c3.01,0.83,3,5.26,0.41,6.59c-0.78,0.44-1.65,0.57-2.53,0.38c0.14-0.48,0.32-0.81,0.47-1.15
			C348.29,182.26,348.56,181.73,348.94,178.72L348.94,178.72z"/>
	</g>
	<g>
		<path class="st1" d="M345.77,178.72c3.01,0.82,3.01,5.25,0.43,6.58c-0.78,0.44-1.64,0.58-2.53,0.39c0.14-0.48,0.32-0.81,0.47-1.15
			C345.13,182.26,345.4,181.73,345.77,178.72L345.77,178.72z"/>
	</g>
	<g>
		<path class="st1" d="M342.12,178.72c3.03,0.72,3.19,5.14,0.65,6.57c-0.76,0.47-1.62,0.63-2.51,0.47c0.12-0.48,0.29-0.82,0.43-1.17
			C341.6,182.28,341.84,181.74,342.12,178.72L342.12,178.72z"/>
	</g>
	<g>
		<path class="st1" d="M338.71,178.72c3.03,0.74,3.16,5.16,0.62,6.57c-0.77,0.46-1.63,0.62-2.51,0.46c0.13-0.48,0.29-0.82,0.44-1.17
			C338.18,182.28,338.43,181.74,338.71,178.72L338.71,178.72z"/>
	</g>
	<g>
		<path class="st1" d="M335.76,178.72c3,0.85,2.97,5.27,0.38,6.59c-0.78,0.43-1.65,0.56-2.53,0.37c0.14-0.48,0.32-0.81,0.48-1.15
			C335.1,182.26,335.36,181.73,335.76,178.72L335.76,178.72z"/>
	</g>
	<g>
		<path class="st1" d="M332.03,180.04c3,0.84,2.98,5.27,0.39,6.59c-0.78,0.44-1.65,0.57-2.53,0.37c0.14-0.48,0.32-0.81,0.48-1.15
			C331.37,183.58,331.64,183.05,332.03,180.04L332.03,180.04z"/>
	</g>
	<g>
		<path class="st1" d="M349.76,186.51c0,0,9.58,6.78,4.03,14.82c0.34-0.11,8.87-3.34,15.57-15.61l-19.6-0.34V186.51z"/>
		<path class="st1" d="M349.76,186.51c4.95,3.33,8.17,9.63,4.38,15.06c0,0-0.47-0.64-0.47-0.64c6.72-3.03,11.71-9.13,15.31-15.42
			c0,0,0.38,0.66,0.38,0.66c-2.83-0.06-6.93-0.19-9.8-0.3c-3.18-0.15-6.78-0.19-9.75-0.48
			C349.81,185.39,349.76,186.51,349.76,186.51L349.76,186.51z M349.76,186.51l-0.05-1.12l0-0.04c3.28-0.05,6.57-0.11,9.85-0.1
			c3.19,0,7.41-0.01,10.56,0.04c0,0-0.38,0.65-0.38,0.65c-3.81,6.95-9.35,13.46-16.99,16.25c0,0,0.68-1.09,0.68-1.09
			C357.25,196.09,354.12,189.99,349.76,186.51L349.76,186.51z"/>
	</g>
	<g>
		<path class="st1" d="M223.08,255.9c-5.52,18.4-9.95,39.65-4.01,58.34c1.73,5.34,5.05,9.81,8.91,13.8
			c10.39,11.43,29.92,32.57,40.57,44.13c8.16,11.39,15.87,23.29,20.87,36.43c0,0,1.02,3.06,1.02,3.06s0.75,3.14,0.75,3.14
			c0.16,1.06,0.27,2.14,0.4,3.2c-1.44-8.47-6.03-15.95-10.36-23.22c-4.33-7.06-9.75-14.75-14.47-20.91
			c-14.87-15.39-29.6-31.09-43.79-47.12C207.67,308.26,215.04,276.24,223.08,255.9L223.08,255.9z"/>
	</g>
	<g>
		<path class="st1" d="M317.1,161.29c-21.33,16.27-42.4,33.02-61.99,51.34c-7.21,6.9-14.35,13.95-20.33,21.92
			c-6.22,7.9-8.61,17.65-11.92,26.95c-8.08,25.44-14.7,51.55-17.74,78.09c-1.17,13.15,1.02,26.58,3.42,39.56
			c2.56,13.14,5.83,26.18,9.95,38.92c2.25,6.26,4.09,12.9,7.93,18.4c-4.2-5.28-6.42-11.86-8.93-18.05
			c-7.04-18.98-12.37-38.57-15.09-58.71c-2.14-13.41-0.43-27.26,1.91-40.58c2.3-13.31,5.37-26.47,8.94-39.49
			c3.72-13,7.67-26.02,13.02-38.46c3.09-6.33,7.6-11.5,12.21-16.64c4.61-5,9.5-9.67,14.51-14.19
			C273.09,192.35,294.76,176.32,317.1,161.29L317.1,161.29z"/>
	</g>
</g>
</svg>
