<?xml version="1.0" encoding="utf-8"?>
<!-- Generator: Adobe Illustrator 26.0.0, SVG Export Plug-In . SVG Version: 6.00 Build 0)  -->
<svg version="1.1" xmlns="http://www.w3.org/2000/svg" xmlns:xlink="http://www.w3.org/1999/xlink" x="0px" y="0px"
	 viewBox="0 0 612 594.78" style="enable-background:new 0 0 612 594.78;" xml:space="preserve">
<style type="text/css">
	.st0{fill:none;}
	.st1{fill:none;stroke:#FFFFFF;stroke-miterlimit:10;}
	.st2{fill:#FFFFFF;}
	.st3{fill:#FFFFFF;stroke:#FFFFFF;}
	.st4{fill:#FFFFFF;stroke:#FFFFFF;stroke-miterlimit:10;}
</style>
<g id="Capa_4">
</g>
<g id="Capa_3">
	<path id="SVGID_x5F_1_x5F_" class="st0" d="M525.25,290.46c0,120.91-98.02,218.93-218.93,218.93S87.38,411.37,87.38,290.46
		S185.4,71.52,306.32,71.52S525.25,169.54,525.25,290.46z"/>
	<text>	<textPath  xlink:href="#SVGID_x5F_1_x5F_" startOffset="81.8043%">
<tspan  class="st2" style="font-family:'ArialRoundedMTBold'; font-size:74.8274px;">SUSURROS UNA VERDAD SILENCIOSA</tspan>	</textPath>
</text>
</g>
<g id="Capa_2">
	<circle cx="303.35" cy="283.12" r="177.33"/>
	<path class="st1" d="M258.58,273.75c0,0,8.35,58.05-6.07,83.85"/>
	<path class="st1" d="M337.1,277.36c1.35-13.15-7.66,59.77,13.76,82.93"/>
	<g>
		<path class="st2" d="M242.64,167.47c-23.05,15.28-47.63,37.93-51.66,66.57c-2.37,20.56-4.51,41.51-0.94,62.03
			c2.91,16.43,8.56,32.22,13.14,48.24c-5.75-15.72-12.07-31.35-15.44-47.81c-4.19-20.72-2.21-42.04,0.34-62.83
			C192.3,204.25,217.96,181.35,242.64,167.47L242.64,167.47z"/>
	</g>
	<g>
		<path class="st2" d="M216.84,167.47c-23.33,14.89-43.89,38.3-47.06,66.62c-1.35,14.02-3.16,28.16-3.13,42.24
			c-0.03,7.07,1.75,13.65,4.77,19.97c1.9,4.49,6.89,14.72,8.95,19.28c7.12,14.99,17.22,36.52,24.08,51.42
			c-12.28-22.96-24.38-46.03-35.52-69.57c-1-2.16-1.99-4.35-2.8-6.66c-3.34-9.22-2.47-19.16-1.96-28.69
			c0.75-9.48,1.71-18.88,2.8-28.31C170.54,204.82,192.08,181.12,216.84,167.47L216.84,167.47z"/>
	</g>
	<g>
		<path class="st2" d="M367.57,167.47c12.44,23.71,27.12,52.89,38.97,77c1.79,3.74,4.89,10.01,6.5,13.73
			c0.15,0.28,0.27,0.84,0.33,1.14c0.05,0.06,0.1,0.1,0.11,0.18c0,0,0.1,0.24,0.1,0.24l0.19,0.48c4.48,10.59,8.43,21.62,11.06,32.87
			c2.6,11.36,3.89,23.11,2.56,34.75c-2.71,22.36-2.26,47.94-18.12,65.91c-6.74,7.66-15.67,13.03-25.11,16.64
			c0,0-4.07,1.43-4.07,1.43c10.63-4.1,20.84-10.12,28.07-19.03c15.15-18.24,13.84-42.94,16.42-65.3c1.19-11.28-0.08-22.7-2.66-33.74
			c-2.59-11.37-6.56-22.22-10.98-33.04c-0.17-0.4-0.29-0.95-0.37-1.37c-0.01-0.1-0.03,0-0.03-0.02c-0.02,0.03-0.02,0.05-0.01,0.07
			c-0.26-0.65-0.6-1.42-0.91-2.11c-1.16-2.6-4.21-9.08-5.44-11.72C392.83,221.46,378.63,191.64,367.57,167.47L367.57,167.47z"/>
	</g>
	<g>
		<path class="st2" d="M397.16,167.47c19.22,20.98,39.5,48.58,44.61,77.12c0.55,3.7,0.69,7.65,0.58,11.4
			c-0.03,3.66-0.24,7.66-0.59,11.28c-2.19,22.33-7.96,44.38-15.95,65.29c6.72-23.16,12.2-46.93,13.45-71.06
			c0.1-1.38,0.18-4.15,0.15-5.54c0.43-11.11-2.63-21.81-6.89-31.96C423.7,203.54,410.95,184.92,397.16,167.47L397.16,167.47z"/>
	</g>
	<path class="st1" d="M237.33,228.59c0,0,1.52,26.19,12.14,35.68c0,0,36.8,41.52,59.95,34.42c3.04,0,34.72-30.66,34.72-30.66
		s16.88-15.15,25.23-45.12"/>
	<path class="st1" d="M367.26,229.8c0,0,16.14-7.27,16.52-28.13"/>
	<g>
		<path class="st2" d="M313.37,184.31c7.53-6.76,25.82-18.03,36.08-16.07c-6.49,1.22-12.11,4.91-18.04,7.65
			C325.46,178.85,319.59,181.86,313.37,184.31L313.37,184.31z"/>
	</g>
	<path class="st1" d="M331.04,201.66h21.25c0,0,9.49-0.76,17.07-15.94c0,0-25.42-0.76-35.28,0c-9.86,0.76-15.18,13.66-15.18,13.66"
		/>
	<g>
		<path class="st3" d="M269.9,265.82l0.95-0.97c0.84,0.68,1.7,1.02,2.6,1.02c0.62,0,1.13-0.18,1.53-0.53
			c0.4-0.35,0.59-0.81,0.59-1.36c0-0.54-0.37-1.15-1.12-1.81l-0.96-0.85c-0.71-0.63-1.16-1.07-1.33-1.32
			c-0.17-0.25-0.26-0.6-0.26-1.02c0-0.85,0.36-1.58,1.08-2.2c0.72-0.62,1.58-0.92,2.57-0.92c0.63,0,1.37,0.19,2.22,0.57l-0.34,1.71
			h-0.43c0.01-0.14,0.01-0.24,0.01-0.29c0-0.43-0.17-0.78-0.52-1.04c-0.35-0.26-0.8-0.4-1.37-0.4c-0.59,0-1.08,0.17-1.48,0.52
			c-0.4,0.35-0.6,0.78-0.6,1.29c0,0.35,0.1,0.66,0.3,0.95c0.2,0.29,0.62,0.7,1.26,1.25l0.8,0.7c0.9,0.77,1.34,1.49,1.34,2.15
			c0,0.88-0.42,1.63-1.26,2.26c-0.84,0.63-1.84,0.94-3.01,0.94C271.61,266.45,270.74,266.24,269.9,265.82z"/>
		<path class="st3" d="M284.42,262.5h-0.12c-1.29,2.58-2.55,3.87-3.77,3.87c-0.73,0-1.09-0.43-1.09-1.29c0-0.24,0.04-0.55,0.11-0.92
			l0.66-3.35c0.1-0.52,0.16-0.86,0.16-1.02c0-0.28-0.13-0.42-0.4-0.42c-0.45,0-1.12,0.5-2.03,1.49l0.12-0.63
			c0.99-1.07,1.89-1.6,2.68-1.6c0.66,0,0.99,0.34,0.99,1.02c0,0.23-0.06,0.61-0.16,1.16l-0.67,3.35c-0.06,0.3-0.09,0.51-0.09,0.64
			c0,0.37,0.13,0.55,0.4,0.55c0.34,0,0.86-0.41,1.55-1.24c0.69-0.82,1.33-1.78,1.91-2.88l0.49-2.45l1.45-0.08l-0.5,2.1l-0.67,3.37
			c-0.1,0.52-0.16,0.86-0.16,1.02c0,0.29,0.13,0.43,0.4,0.43c0.45,0,1.13-0.5,2.03-1.5l-0.12,0.63c-1,1.07-1.89,1.6-2.68,1.6
			c-0.66,0-0.99-0.34-0.99-1.03c0-0.23,0.05-0.62,0.16-1.16L284.42,262.5z"/>
		<path class="st3" d="M287.42,265.97l0.9-0.92c0.59,0.43,1.19,0.65,1.8,0.65c0.38,0,0.69-0.1,0.95-0.3
			c0.26-0.2,0.39-0.44,0.39-0.73c0-0.32-0.26-0.76-0.77-1.32l-0.62-0.68c-0.6-0.66-0.91-1.22-0.91-1.66c0-0.62,0.29-1.17,0.88-1.65
			c0.59-0.48,1.26-0.72,2.01-0.72c0.41,0,0.88,0.09,1.39,0.26l-0.3,1.51h-0.44l0.02-0.12c0.01-0.04,0.01-0.09,0.01-0.14
			c0-0.61-0.39-0.92-1.18-0.92c-0.88,0-1.33,0.35-1.33,1.06c0,0.36,0.26,0.84,0.79,1.43l0.56,0.62c0.61,0.69,0.91,1.25,0.91,1.69
			c0,0.61-0.32,1.15-0.97,1.63c-0.65,0.48-1.38,0.72-2.2,0.72C288.75,266.37,288.12,266.24,287.42,265.97z"/>
		<path class="st3" d="M300.46,262.5h-0.12c-1.29,2.58-2.55,3.87-3.77,3.87c-0.73,0-1.09-0.43-1.09-1.29c0-0.24,0.04-0.55,0.11-0.92
			l0.66-3.35c0.1-0.52,0.16-0.86,0.16-1.02c0-0.28-0.13-0.42-0.4-0.42c-0.45,0-1.12,0.5-2.03,1.49l0.12-0.63
			c0.99-1.07,1.89-1.6,2.68-1.6c0.66,0,0.99,0.34,0.99,1.02c0,0.23-0.06,0.61-0.16,1.16l-0.67,3.35c-0.06,0.3-0.09,0.51-0.09,0.64
			c0,0.37,0.13,0.55,0.4,0.55c0.34,0,0.86-0.41,1.55-1.24c0.69-0.82,1.33-1.78,1.91-2.88l0.49-2.45l1.45-0.08l-0.5,2.1l-0.67,3.37
			c-0.1,0.52-0.16,0.86-0.16,1.02c0,0.29,0.13,0.43,0.4,0.43c0.45,0,1.13-0.5,2.03-1.5l-0.12,0.63c-1,1.07-1.89,1.6-2.68,1.6
			c-0.66,0-0.99-0.34-0.99-1.03c0-0.23,0.05-0.62,0.16-1.16L300.46,262.5z"/>
		<path class="st3" d="M304.91,266.28l0.5-2.1l0.66-3.33c0.07-0.34,0.1-0.63,0.1-0.87c0-0.39-0.14-0.59-0.41-0.59
			c-0.48,0-1.17,0.51-2.07,1.54l0.12-0.61c1.05-1.13,1.96-1.7,2.73-1.7c0.65,0,0.98,0.38,0.98,1.12c0,0.33-0.04,0.7-0.12,1.1
			l-0.33,1.64h0.09c0.54-1.14,1.18-2.07,1.92-2.79c0.74-0.72,1.41-1.08,2.03-1.08c0.32,0,0.6,0.07,0.85,0.21l-0.91,1.23
			c-0.27-0.18-0.5-0.27-0.68-0.27c-0.89,0-2.07,1.3-3.54,3.9l-0.5,2.49L304.91,266.28z"/>
		<path class="st3" d="M312.77,266.28l0.5-2.1l0.66-3.33c0.07-0.34,0.1-0.63,0.1-0.87c0-0.39-0.14-0.59-0.41-0.59
			c-0.48,0-1.17,0.51-2.07,1.54l0.12-0.61c1.05-1.13,1.96-1.7,2.73-1.7c0.65,0,0.98,0.38,0.98,1.12c0,0.33-0.04,0.7-0.12,1.1
			l-0.33,1.64h0.09c0.54-1.14,1.18-2.07,1.92-2.79c0.74-0.72,1.41-1.08,2.03-1.08c0.32,0,0.6,0.07,0.85,0.21l-0.91,1.23
			c-0.27-0.18-0.5-0.27-0.68-0.27c-0.89,0-2.07,1.3-3.54,3.9l-0.5,2.49L312.77,266.28z"/>
		<path class="st3" d="M322.16,266.37c-0.6,0-1.09-0.23-1.49-0.7c-0.4-0.47-0.6-1.05-0.6-1.74c0-1.31,0.5-2.52,1.49-3.63
			c0.99-1.11,2.07-1.67,3.24-1.67c0.63,0,1.15,0.23,1.56,0.68c0.41,0.45,0.61,1.03,0.61,1.74c0,1.36-0.5,2.58-1.49,3.68
			C324.5,265.83,323.39,266.37,322.16,266.37z M322.94,265.78c0.67,0,1.26-0.43,1.78-1.3c0.51-0.87,0.77-1.87,0.77-3.02
			c0-1.5-0.46-2.26-1.38-2.26c-0.65,0-1.24,0.45-1.76,1.34c-0.52,0.89-0.78,1.9-0.78,3.02
			C321.57,265.04,322.03,265.78,322.94,265.78z"/>
		<path class="st3" d="M327.31,265.97l0.9-0.92c0.59,0.43,1.19,0.65,1.8,0.65c0.38,0,0.69-0.1,0.95-0.3
			c0.26-0.2,0.39-0.44,0.39-0.73c0-0.32-0.26-0.76-0.77-1.32l-0.62-0.68c-0.61-0.66-0.91-1.22-0.91-1.66c0-0.62,0.29-1.17,0.88-1.65
			c0.59-0.48,1.26-0.72,2.01-0.72c0.41,0,0.88,0.09,1.39,0.26l-0.3,1.51h-0.44l0.02-0.12c0.01-0.04,0.01-0.09,0.01-0.14
			c0-0.61-0.39-0.92-1.18-0.92c-0.88,0-1.33,0.35-1.33,1.06c0,0.36,0.26,0.84,0.79,1.43l0.56,0.62c0.61,0.69,0.91,1.25,0.91,1.69
			c0,0.61-0.32,1.15-0.97,1.63c-0.65,0.48-1.38,0.72-2.2,0.72C328.64,266.37,328,266.24,327.31,265.97z"/>
	</g>
	<path class="st1" d="M290.4,238.72h2.81c1,0,1.93,0.44,2.64,1.15c1.3,1.31,4.02,2.88,8.19-0.38c0.63-0.49,1.41-0.77,2.22-0.77h2.7"
		/>
	<path class="st1" d="M289.37,270.55c0,0,9.36,7.21,22.01,0"/>
	<path class="st1" d="M288.61,253.26c0,0,9.33-7.24,22.01-0.08"/>
	<g>
		<path class="st2" d="M369.82,179.19c2.33,1.86,1.74,5.5-0.86,6.8c-1.11,0.52-1.19,0.48-0.3-0.39
			C370.42,183.82,370.8,181.6,369.82,179.19L369.82,179.19z"/>
	</g>
	<g>
		<path class="st2" d="M366.6,179.19c2.39,1.78,1.92,5.44-0.64,6.83c-1.09,0.55-1.17,0.52-0.31-0.38
			C367.35,183.8,367.66,181.57,366.6,179.19L366.6,179.19z"/>
	</g>
	<g>
		<path class="st2" d="M363.16,179.19c2.45,1.65,2.13,5.4-0.36,6.85c-1.07,0.59-1.15,0.57-0.33-0.36
			C364.1,183.77,364.32,181.53,363.16,179.19L363.16,179.19z"/>
	</g>
	<g>
		<path class="st2" d="M359.8,179.2c2.19,1.98,1.33,5.64-1.34,6.72c-1.14,0.44-1.22,0.4-0.27-0.41
			C360.07,183.86,360.61,181.68,359.8,179.2L359.8,179.2z"/>
	</g>
	<g>
		<path class="st2" d="M355.71,179.19c2.44,1.66,2.11,5.4-0.38,6.84c-1.07,0.59-1.15,0.56-0.33-0.37
			C356.63,183.77,356.86,181.54,355.71,179.19L355.71,179.19z"/>
	</g>
	<g>
		<path class="st2" d="M352.2,179.19c2.42,1.69,2.03,5.43-0.49,6.84c-1.08,0.58-1.16,0.54-0.32-0.37
			C353.05,183.78,353.31,181.55,352.2,179.19L352.2,179.19z"/>
	</g>
	<g>
		<path class="st2" d="M348.94,178.72c2.26,1.89,1.56,5.47-1.08,6.62c-1.12,0.45-1.19,0.41-0.28-0.4
			C349.39,183.27,349.83,181.13,348.94,178.72L348.94,178.72z"/>
	</g>
	<g>
		<path class="st2" d="M345.77,178.72c2.27,1.88,1.58,5.46-1.06,6.62c-1.12,0.45-1.19,0.41-0.28-0.4
			C346.24,183.27,346.67,181.13,345.77,178.72L345.77,178.72z"/>
	</g>
	<g>
		<path class="st2" d="M342.12,178.72c2.33,1.8,1.76,5.41-0.84,6.65c-1.1,0.49-1.18,0.45-0.3-0.39
			C342.74,183.25,343.1,181.09,342.12,178.72L342.12,178.72z"/>
	</g>
	<g>
		<path class="st2" d="M338.71,178.72c2.32,1.82,1.73,5.42-0.87,6.65c-1.1,0.48-1.18,0.45-0.29-0.39
			C339.31,183.25,339.68,181.1,338.71,178.72L338.71,178.72z"/>
	</g>
	<g>
		<path class="st2" d="M335.76,178.72c2.25,1.9,1.53,5.48-1.11,6.61c-1.12,0.44-1.19,0.4-0.28-0.4
			C336.19,183.28,336.65,181.14,335.76,178.72L335.76,178.72z"/>
	</g>
	<g>
		<path class="st2" d="M332.03,180.04c2.26,1.89,1.55,5.47-1.1,6.61c-1.12,0.44-1.19,0.41-0.28-0.4
			C332.47,184.59,332.92,182.45,332.03,180.04L332.03,180.04z"/>
	</g>
	<path class="st4" d="M349.76,186.51c0,0,9.58,6.78,4.03,14.82c0.34-0.11,8.87-3.34,15.57-15.61l-19.6-0.34V186.51z"/>
	<g>
		<path class="st2" d="M223.08,255.9c-5.52,18.4-9.95,39.65-4.01,58.34c1.73,5.34,5.05,9.81,8.91,13.8
			c10.39,11.43,29.92,32.57,40.57,44.13c8.16,11.39,15.87,23.29,20.87,36.43c0,0,1.02,3.06,1.02,3.06s0.75,3.14,0.75,3.14
			c0.16,1.06,0.27,2.14,0.4,3.2c-1.44-8.47-6.03-15.95-10.36-23.22c-4.33-7.06-9.75-14.75-14.47-20.91
			c-14.87-15.39-29.6-31.09-43.79-47.12C207.67,308.26,215.04,276.24,223.08,255.9L223.08,255.9z"/>
	</g>
	<g>
		<path class="st2" d="M317.1,161.29c-21.44,16.14-42.65,32.74-62.27,51.04c-7.23,6.91-14.4,13.96-20.41,21.94
			c-6.26,7.91-8.7,17.73-12.02,27.07c-8.11,25.47-14.72,51.62-17.72,78.2c-1.14,13.22,1.04,26.66,3.5,39.67
			c2.65,13.14,5.99,26.16,10.18,38.89c2.28,6.26,4.17,12.88,8.06,18.36c-4.16-5.31-6.33-11.89-8.81-18.09
			c-4.68-12.63-8.4-25.61-11.29-38.77c-2.76-13.24-5.33-26.67-4.27-40.31c1.92-20.18,6.37-39.99,11.67-59.52
			c2.73-9.74,5.72-19.41,9.21-28.91c2.22-6.42,4.93-12.96,9.29-18.23c2.05-2.73,4.3-5.28,6.57-7.8
			C262.11,200.47,289.52,180.4,317.1,161.29L317.1,161.29z"/>
	</g>
</g>
</svg>
